<svg width="153" height="49" xmlns="http://www.w3.org/2000/svg">
  <g fill-rule="nonzero" fill="none">
    <path d="M19.505 30.397v16.066L17.33 48.63l-2.174-2.167V30.397h4.35zm-7.42 0v13.01L7.74 39.075v-8.68h4.347zm10.49-17.033l4.347 3.023v22.687l-4.347 4.333V13.364zm7.416-6.419l4.353 3.025v21.713l-4.353 4.336V6.945zm-10.486 16.22v4.332H4.666v8.52l-4.35-4.334v-8.518h19.19zM7.74.315l4.347 3.025v16.928H7.739V.315zm7.416 13.049l4.35 3.023v3.88h-4.35v-6.903z" fill="#EA2829"/>
    <path d="M77.341 23.204c1.093 0 2.023.213 2.783.64a5.81 5.81 0 011.863 1.623c.48.655.825 1.376 1.04 2.164.216.787.32 1.534.32 2.24 0 .884-.147 1.715-.443 2.495a6.28 6.28 0 01-1.24 2.043 5.917 5.917 0 01-1.894 1.38 5.663 5.663 0 01-2.407.507c-.56 0-1.044-.059-1.45-.176a5.579 5.579 0 01-1.066-.42 3.912 3.912 0 01-.742-.497 5.438 5.438 0 01-.443-.43v5.188h-3.679V23.624h3.457v1.346h.065c.37-.47.865-.883 1.487-1.236.622-.353 1.404-.53 2.349-.53zm14.784 0c1.096 0 2.022.213 2.783.64.76.427 1.382.968 1.862 1.623.48.655.828 1.376 1.04 2.164.216.787.324 1.534.324 2.24 0 .884-.148 1.715-.443 2.495a6.334 6.334 0 01-1.24 2.043 5.93 5.93 0 01-1.897 1.38 5.66 5.66 0 01-2.405.507c-.563 0-1.047-.059-1.453-.176a5.466 5.466 0 01-1.062-.42 3.945 3.945 0 01-.745-.497 5.438 5.438 0 01-.443-.43v5.188h-3.68V23.624h3.458v1.346h.068c.37-.47.865-.883 1.484-1.236.621-.353 1.403-.53 2.349-.53zm-31.917 0c.502 0 .952.055 1.352.166.397.11.745.25 1.04.42a3.321 3.321 0 011.198 1.136h.043v-1.302h3.682v12.253h-3.682v-1.325h-.043c-.163.294-.37.552-.622.773-.25.22-.539.405-.862.552a4.466 4.466 0 01-1.031.32c-.363.066-.72.1-1.075.1-.975 0-1.847-.177-2.616-.53a5.646 5.646 0 01-1.94-1.436 6.454 6.454 0 01-1.207-2.086 7.346 7.346 0 01-.422-2.506c0-1 .17-1.906.508-2.715.342-.81.792-1.498 1.355-2.065.56-.566 1.213-1 1.961-1.302a6.234 6.234 0 012.361-.453zm75.076.022c1.124 0 2.096.199 2.925.596.828.398 1.514.91 2.062 1.535a6.403 6.403 0 011.232 2.097c.27.773.41 1.534.41 2.285 0 .75-.14 1.512-.41 2.285a6.403 6.403 0 01-1.232 2.098c-.548.625-1.234 1.137-2.062 1.534-.829.397-1.801.596-2.925.596-1.124 0-2.1-.199-2.925-.596-.828-.397-1.515-.909-2.062-1.534a6.403 6.403 0 01-1.232-2.098 6.882 6.882 0 01-.41-2.285c0-.75.14-1.512.41-2.285a6.403 6.403 0 011.232-2.097c.544-.626 1.234-1.137 2.062-1.535.825-.397 1.801-.596 2.925-.596zm-24.204-.022c.588 0 1.176.103 1.76.31.586.205 1.047.455 1.386.75.163.147.33.32.499.519.17.198.32.452.455.761.133.31.244.681.333 1.115.086.434.132.953.132 1.557v7.66h-3.679v-6.689c0-.22-.012-.474-.034-.762a2.432 2.432 0 00-.212-.827 1.63 1.63 0 00-.563-.674c-.259-.184-.631-.276-1.121-.276-.533 0-.939.1-1.22.298a1.87 1.87 0 00-.618.707 2.245 2.245 0 00-.234.839c-.021.287-.034.526-.034.717v6.668h-3.679V23.624h3.436v1.302h.043c.09-.147.213-.32.367-.519.157-.198.363-.386.621-.563a3.77 3.77 0 01.964-.452c.385-.125.85-.188 1.398-.188zm17.776 0v3.687a9.188 9.188 0 00-1.176.11c-.354.06-.66.17-.92.332-.256.162-.456.39-.598.684-.139.294-.21.67-.21 1.126v6.734h-3.678V23.624h3.457v1.302h.043c.074-.147.179-.32.31-.519a2.43 2.43 0 01.543-.563 3.16 3.16 0 01.886-.452c.364-.125.81-.188 1.343-.188zm18.155-3.665v16.338h-3.68V19.539h3.68zm5.674 0v16.338h-3.68V19.539h3.68zm-91.947 7.087c-.53 0-.985.1-1.36.298a2.957 2.957 0 00-.943.762c-.252.309-.437.647-.557 1.015a3.559 3.559 0 00-.176 1.082c0 .295.056.618.167.972.11.353.29.688.532 1.004.243.317.558.582.942.795.382.213.856.32 1.42.32.575 0 1.059-.107 1.45-.32a2.99 2.99 0 00.954-.795c.243-.316.416-.658.52-1.026.102-.368.154-.7.154-.994 0-.368-.061-.736-.188-1.104a3.051 3.051 0 00-.575-1.004 2.88 2.88 0 00-.976-.729c-.391-.184-.847-.276-1.364-.276zm15.849 0c-.502 0-.945.096-1.33.287a3.021 3.021 0 00-.964.74 3.258 3.258 0 00-.588 1.004c-.132.368-.2.736-.2 1.104 0 .383.07.762.212 1.137.142.376.345.71.61 1.005.265.294.588.53.964.706.378.177.81.265 1.296.265.49 0 .92-.088 1.296-.265.379-.176.699-.412.967-.706.264-.295.467-.63.61-1.005a3.172 3.172 0 00.01-2.24 3.14 3.14 0 00-.59-1.005 2.987 2.987 0 00-.963-.74c-.382-.191-.825-.287-1.33-.287zm14.786 0c-.501 0-.948.096-1.33.287a3.021 3.021 0 00-.963.74 3.14 3.14 0 00-.588 1.004 3.172 3.172 0 00.009 2.241c.142.376.345.71.61 1.005.267.294.588.53.966.706.376.177.807.265 1.296.265.487 0 .92-.088 1.297-.265.375-.176.698-.412.963-.706.265-.295.471-.63.61-1.005.141-.375.212-.754.212-1.137 0-.368-.068-.736-.2-1.104a3.258 3.258 0 00-.588-1.004 3.021 3.021 0 00-.964-.74c-.384-.191-.828-.287-1.33-.287zm43.91.022c-.4 0-.775.077-1.129.232a3.064 3.064 0 00-.942.64c-.274.273-.49.6-.643.983a3.283 3.283 0 00-.234 1.236c0 .442.08.854.234 1.236.153.383.369.71.643.983.274.272.588.486.942.64.354.155.73.232 1.13.232a2.8 2.8 0 001.13-.232c.354-.154.668-.368.942-.64.274-.272.486-.6.643-.983.154-.382.231-.794.231-1.236 0-.441-.077-.854-.23-1.236a2.886 2.886 0 00-.644-.983 3.064 3.064 0 00-.942-.64 2.79 2.79 0 00-1.13-.232zm-32.45-7.109l-.755 6.557h-2.37l-.733-6.557h3.857zm18.043 0l-.754 6.557h-2.37l-.734-6.557h3.858z" fill="#000"/>
  </g>
</svg>
